<?xml version="1.0" encoding="utf-8"?>
<!-- Generator: Adobe Illustrator 17.0.0, SVG Export Plug-In . SVG Version: 6.00 Build 0)  -->
<!DOCTYPE svg PUBLIC "-//W3C//DTD SVG 1.1//EN" "http://www.w3.org/Graphics/SVG/1.1/DTD/svg11.dtd">
<svg version="1.1" id="Layer_1" xmlns="http://www.w3.org/2000/svg" xmlns:xlink="http://www.w3.org/1999/xlink" x="0px" y="0px"
	 width="16px" height="13px" viewBox="0 0 16 13" enable-background="new 0 0 16 13" xml:space="preserve">
<path fill="#041046" d="M13.931,3.14c0.007,0.137,0.01,0.272,0.01,0.411c0,4.207-3.203,9.057-9.06,9.057
	C3.15,12.61,1.456,12.114,0,11.178c0.25,0.028,0.502,0.043,0.76,0.043c1.433,0.003,2.826-0.476,3.953-1.361
	C3.352,9.833,2.158,8.945,1.74,7.649C2.217,7.74,2.708,7.721,3.177,7.595C1.692,7.293,0.624,5.988,0.623,4.473v-0.04
	c0.43,0.239,0.92,0.382,1.443,0.398C1.18,4.24,0.649,3.246,0.65,2.181c0-0.583,0.157-1.13,0.43-1.6
	c1.617,1.99,4.003,3.199,6.564,3.326c-0.4-1.711,0.662-3.423,2.373-3.823C10.256,0.028,10.501,0,10.746,0
	c0.88-0.001,1.721,0.362,2.323,1.004c0.713-0.141,1.396-0.402,2.021-0.774c-0.238,0.737-0.735,1.363-1.4,1.76
	c0.631-0.074,1.248-0.242,1.829-0.499c-0.427,0.639-0.966,1.198-1.589,1.648"/>
</svg>
