<?xml version="1.0" encoding="utf-8"?>
<!-- Generator: Adobe Illustrator 17.0.0, SVG Export Plug-In . SVG Version: 6.00 Build 0)  -->
<!DOCTYPE svg PUBLIC "-//W3C//DTD SVG 1.1//EN" "http://www.w3.org/Graphics/SVG/1.1/DTD/svg11.dtd">
<svg version="1.1" id="Layer_1" xmlns="http://www.w3.org/2000/svg" xmlns:xlink="http://www.w3.org/1999/xlink" x="0px" y="0px"
	 width="18px" height="13px" viewBox="0 0 18 13" enable-background="new 0 0 18 13" xml:space="preserve">
<path fill="#041046" d="M9.098,12.573c-0.065,0.001-0.131,0.001-0.196,0c-8.266-0.005-8.87-0.377-8.9-5.95C0,6.594,0,6.563,0,6.53
	c0-0.193,0-0.387,0.001-0.58C0.032,0.376,0.636,0.004,8.901,0c0.066-0.001,0.131-0.001,0.197,0c8.266,0.005,8.87,0.377,8.9,5.95
	C18,5.98,18,6.011,18,6.043c0,0.193,0,0.387-0.001,0.58c-0.031,5.573-0.635,5.945-8.9,5.95H9.098z M7.255,3.43v5.64l5.442-2.986
	L7.255,3.43z"/>
</svg>
